/* XPM */
static char *_5600eff184f4a7fd8d19a6872745e78P2HEJS3lIWodD0ME[] = {
/* columns rows colors chars-per-pixel */
"50 50 7 1 ",
"  c #1EBC73",
". c #F9C22B",
"X c #91DB69",
"o c #CDDF6C",
"O c #0B8A8F",
"+ c #0EAF9B",
"@ c #FBFF86",
/* pixels */
"                                            ++    ",
"                                            ++    ",
"                          oooo        oooo        ",
"                          oooo        oooo        ",
"                        ooooooXX    oooooooo      ",
"                        ooooooXX    oooooooo      ",
"                          ooXXXXXX  XXXXoo        ",
"                          ooXXXXXX  XXXXoo        ",
"                        ++OOOOXXXX  XXXXOOOO++    ",
"                        ++OOOOXXXX  XXXXOOOO++    ",
"                          ++OOOOXXOOXXOOOO++      ",
"                          ++OOOOXXOOXXOOOO++      ",
"                              ++OOOOOO++          ",
"                              ++OOOOOO++          ",
"                              ooXXXX++            ",
"                              ooXXXX++            ",
"                      XX    ooXXXXOO              ",
"                      XX    ooXXXXOO              ",
"                    ++      ++OOOO++              ",
"                    ++      ++OOOO++              ",
"                                        XX        ",
"                                        XX        ",
"                                        ++        ",
"                                        ++        ",
"                                                  ",
"                                                  ",
"                                                  ",
"                                                  ",
"                                                  ",
"                                                  ",
"                                                  ",
"                                                  ",
"                          @@@@                    ",
"                          @@@@                    ",
"        XX              @@....@@      XX          ",
"        XX              @@....@@      XX          ",
"          ++          ooXX@@@@ooXX    ++          ",
"          ++          ooXX@@@@ooXX    ++          ",
"                        XXXX  XX                  ",
"                        XXXX  XX                  ",
"                        ++OOXXOO++    @@@@        ",
"                        ++OOXXOO++    @@@@        ",
"                          ++++++    @@....@@      ",
"                          ++++++    @@....@@      ",
"                                  XXoo@@@@XXoo    ",
"                                  XXoo@@@@XXoo    ",
"                                    XX  XXXX      ",
"                                    XX  XXXX      ",
"            XX                    ++OOXXOO++      ",
"            XX                    ++OOXXOO++      "
};
