/* XPM */
static char *_f4fb4f822314275e9cb40c682d25b47hOAxMnYVqXMm8wfa[] = {
/* columns rows colors chars-per-pixel */
"50 50 2 1 ",
"  c #527532",
". c #738525",
/* pixels */
"                                                ..",
"                                                ..",
"                                                ..",
"                                                ..",
"                                                ..",
"                                                ..",
"        ..                                        ",
"        ..                                        ",
"        ..                                        ",
"        ..                                        ",
"      ....                                        ",
"      ....                                        ",
"      ....                                        ",
"      ....                                        ",
"      ..                        ..                ",
"      ..                        ..                ",
"      ..                        ..                ",
"      ..                        ..                ",
"                                ..                ",
"                                ..                ",
"                                ..                ",
"                                ..                ",
"                                                  ",
"                                                  ",
"                                                  ",
"                                                  ",
"                                                  ",
"                                                  ",
"                                                  ",
"                                                  ",
"                                                  ",
"                                                  ",
"                                                  ",
"                                                  ",
"                                                  ",
"                                                  ",
"                                                  ",
"                                                  ",
"          ..                                      ",
"          ..                                      ",
"          ..                                      ",
"          ..                                      ",
"          ..                                  ..  ",
"          ..                                  ..  ",
"          ..                                  ..  ",
"          ..                                  ..  ",
"                                            ....  ",
"                                            ....  ",
"                                            ....  ",
"                                            ....  "
};
