/* XPM */
static char *_c4b1d6b1aa644e4973a596de3329bbbNYWYJEIxyB3UtKPb[] = {
/* columns rows colors chars-per-pixel */
"50 50 8 1 ",
"  c #2E222F",
". c #3E3546",
"X c #165A4C",
"o c #1EBC73",
"O c #91DB69",
"+ c #D5E04B",
"@ c #0B8A8F",
"# c #0EAF9B",
/* pixels */
"oooooooooooooooooooooooooooooooooooooooooooooooooo",
"oooooooooooooooooooooooooooooooooooooooooooooooooo",
"oooooooooooooooooooooooooooooooooooooooooooooooooo",
"oooooooooooooooooooooooooooooooooooooooooooooooooo",
"oooooooooooooooooooooooooooooooooooooooooooooooooo",
"oooooooooooooooooooooooooooooooooooooooooooooooooo",
"oooooooooooooooooooooooooooooooooooooooooooooooooo",
"oooooooooooooooooooooooooooooooooooooooooooooooooo",
"oooooooooooooooooooooooooooooooooooooooooooooooooo",
"oooooooooooooooooooooooooooooooooooooooooooooooooo",
"oooooooooooooooooooooooooooooooooooooooooooooooooo",
"oooooooooooooooooooooooooooooooooooooooooooooooooo",
"ooooooooooooOO++##oooo++++oooo++##++@@oooooooooooo",
"ooooooooooooOO++##oooo++++oooo++##++@@oooooooooooo",
"oooooooooo##ooOO++oo++OOoo##++OO@@OO++++OOoooooooo",
"oooooooooo##ooOO++oo++OOoo##++OO@@OO++++OOoooooooo",
"oooooooooo##@@ooOO##OOooXX@@OOooXXoo++OOoooooooooo",
"oooooooooo##@@ooOO##OOooXX@@OOooXXoo++OOoooooooooo",
"ooooooooooOO++XXooXXXXXX..XXooXX..XXoooo@@oooooooo",
"ooooooooooOO++XXooXXXXXX..XXooXX..XXoooo@@oooooooo",
"ooooooooooooOO++XX..........XX......XX++OOoooooooo",
"ooooooooooooOO++XX..........XX......XX++OOoooooooo",
"oooooooooooo##oo  ........  ........++OOoooooooooo",
"oooooooooooo##oo  ........  ........++OOoooooooooo",
"ooooooooooOO++XX    ......  ........OOoo##oooooooo",
"ooooooooooOO++XX    ......  ........OOoo##oooooooo",
"ooooooooooooOO++    ....      ....  XX++OOoooooooo",
"ooooooooooooOO++    ....      ....  XX++OOoooooooo",
"ooooooooooooooOO      ..      ..    ++OOoooooooooo",
"ooooooooooooooOO      ..      ..    ++OOoooooooooo",
"oooooooooooo##@@              ..    OO##@@oooooooo",
"oooooooooooo##@@              ..    OO##@@oooooooo",
"oooooooooo++++XX                    XX++++oooooooo",
"oooooooooo++++XX                    XX++++oooooooo",
"ooooooooooooOO++                    ++OOoooooooooo",
"ooooooooooooOO++                    ++OOoooooooooo",
"oooooooooo##@@oo                    XXoo@@oooooooo",
"oooooooooo##@@oo                    XXoo@@oooooooo",
"ooooooooooooOO++XX    ++    ++    XX++OO##oooooooo",
"ooooooooooooOO++XX    ++    ++    XX++OO##oooooooo",
"oooooooooo##ooOO++XX++OO@@++OO  OO++OO##oooooooooo",
"oooooooooo##ooOO++XX++OO@@++OO  OO++OO##oooooooooo",
"oooooooooooo##ooOO@@OOoo##OOoo@@ooOO@@oooooooooooo",
"oooooooooooo##ooOO@@OOoo##OOoo@@ooOO@@oooooooooooo",
"oooooooooooooooooooooooooooooooooooooooooooooooooo",
"oooooooooooooooooooooooooooooooooooooooooooooooooo",
"oooooooooooooooooooooooooooooooooooooooooooooooooo",
"oooooooooooooooooooooooooooooooooooooooooooooooooo",
"oooooooooooooooooooooooooooooooooooooooooooooooooo",
"oooooooooooooooooooooooooooooooooooooooooooooooooo"
};
