/* XPM */
static char *_182ad2ae49145e9efdeae7f140c41b5Z4xKOGJTkuYrBmiM[] = {
/* columns rows colors chars-per-pixel */
"50 50 13 1 ",
"  c #7A3045",
". c #0B5E65",
"X c #9E4539",
"o c #CD683D",
"O c #1EBC73",
"+ c #1FBC73",
"@ c #1DBB75",
"# c #1FBD74",
"$ c #E6904E",
"% c #91DB69",
"& c #CDDF6C",
"* c #0B8A8F",
"= c #0EAF9B",
/* pixels */
"OOOOOOOOOOOOOOOOOOOOOOOOOOOOOOOOOOOOOOOOOOOO==OOOO",
"OOOOOOOOOOOOOOOOOOOOOOOO**++++++OOOOOOOOOOOOOOOOOO",
"OOOOOOOOOOOOOOOOOOOOOO**&&**OOOOOOO#OOOOOOOOOOOOOO",
"OOOOOOOOOOOOOOOOOO****O&&%&O****OOO#OOOOOOOOOOOOOO",
"OOOOOOOOOOOOOOOO**OOO%&&%O%&%OOO**O#OOOOOOOOOOOOOO",
"OOOOOOOOOOOOOOO*OO&&O%&&%%%&%%%%OO*#OOOOOOOOOOOOOO",
"OOOOOOOOOOOOOO*O%&%%%&%&%OO%&%%O%%O*OOOOOOOOOOOOOO",
"OOOOOOOOOOOOOO*OO%%%&%&&%OOO%&&%%%O*OOOOOOOOOOOOOO",
"OOOOOOOOOOOOO*O%&O%&%&&%%%O%OO%%OO%O*OOOOOOOOOOOOO",
"OOOOOOOOOOOOO*O&%%%%&&O%%%O%%%%%%%%O*OOOOOOOOOOOOO",
"OOOOOOOOOOOO*OOO%%&&&O%%%%%OO%%%%%O**OOOOOOOOOOOOO",
"OOOOOOOOOOO*OOO%&%%OO%%&O&%OOOO%%&%OO**OOOOOOOOOOO",
"OOOOOOOOOO***%&&&&%%%%%&O%%%O%%O&&&%%OO*OOOOOOOOOO",
"OOOOOOOOO***%&&&&%%%%%&O%%%&%O%%%&%O%O*%*OOOOOOOOO",
"OOOOOOOO*OO*%&%&&%O%&%%%%O%&%%%%%%&&O**%O*OOOOOOOO",
"OOOOOOOO*O%O*O%&%O%&&&%O%O%%%%&%O%%O**%%%.OOOOOOOO",
"OOOOOOOO*%O&O%%%OO&&%&&%O%%&%%%&OO%%O*%O*.OOOOOOOO",
"OOOOOOOO*O&%OOOOO&&%%&&%O%%&&O%%&OOOOO&%O.OOOOOOOO",
"OOOOOOO.O*%OOO&%O%%O%&%OOO%%&&O%%O%%%O%&OO.OOOOOOO",
"OOOOOOO.*OO%O&%%O%OO%%OO%OO%%%OO%OO%%OO%%*.OOOOOOO",
"OOOOOOOO.*%OO%%OOOOO%OOO%&OO%%OOOOOOOOOO**.OOOOOOO",
"OOOOOOO.****OOOO*O%OOOO%&&%OOOO&%O&%OO%**.OOOOOOOO",
"OOOOOO.**O*OO%O%*%&O%*O%&%%OO*%&%O%&&O*%%O.OOOOOOO",
"OOOOOO.*O*OO%%O%O&%%%*%%&%%%O*%%&%O%%&O*OO*.OOOOOO",
"OOOOOO.*O*O%%O%O*&%%%*%%%O%%*O%%%&**O%OO*O*.OOOOOO",
"OOOOOO.***OO*%O*O%%%*O%%OOO%**OO%O**OOOO***.OOOOOO",
"OOOOOO.*.***OO**OO%**OO%O%OOO*O%OOO***O**.*.OOOOOO",
"OOOOOOO..******O%OOO*O*O%%%OO*O%%OO*O****..OOOOOOO",
"OOOOOOO.**%O*OO*O%OO**OO%%%O**OO%OO*O%O%**.OOOOOOO",
"OOOOOOO.*%OO*O**OOO*O*OOO%OO***OOO***OOO%*.OOOOOOO",
"OOOOOOO.*OO****O*O*O%O**OO***OO*****O***O*.OOOOOOO",
"OOOOOOOO.O****%O*O*%%OOO***O*O%O**O**.***.OOOOOOOO",
"OOOOOOOO.**.*%OO**O%OOO%O*O%*OO%O*O%**....OOOOOOOO",
"OOOOOOOO.*.*OOO***%OO*OO%O%O*OOOO**O%**..OOOOOOOOO",
"OOOOOOOO%.******O*OO**OO%%%O**O**O**O*..*OOOOOOOOO",
"OOOOOOOO%.**O**OO*OO****O%O**O***OO****.*OOOOOOOOO",
"OOOOOOOO**.O**.OO*O**.**OOO**OOO**O**..***OOOOOOOO",
"OOOOOOO****....O*****.***O**.*OO***...*****+++#OOO",
"OOOOOO*********.****...*****..****.*********OOOOOO",
"OOOOOO*********X....XXo.....XX.... *********OOOOOO",
"OOOOOO*********XooXXXo$oXooX$X XXoo*********OOOOOO",
"OOOOOO*********X  X X$$oX$oo$$ X XX*********OOOOOO",
"OOOOOOO*********.. X$$oXo$$Xo$$ ..*********OOOOOOO",
"OOOOOOOO*********. oooX o$o Xoo .*********OOOOOOOO",
"OOOOOOOOO*********XXXX  XoX  XoX*********OOOOOOOOO",
"OOOOOOOOOO*********.  .. X .. XX********OOOOOOOOOO",
"OOOOOOOOOOOO**************************OOOOOOOOOOOO",
"OOOOOOOOOOOOOOO********************OOOOOOOOOOOOOOO",
"OOOOOOOOOOOO%%OOOOO************OO+@OOOOOOOOOOOOOOO",
"OOOOOOOOOOOO%%OOOOOOOOOOOOOOOOOOO+@OOOOOOOOOOOOOOO"
};
