/* XPM */
static char *_befaa645e5c4a8e851d444a15eddfd1k502HvllGelFuPcC[] = {
/* columns rows colors chars-per-pixel */
"50 50 10 1 ",
"  c None",
". c #7A3045",
"X c #0B5E65",
"o c #9E4539",
"O c #CD683D",
"+ c #1EBC73",
"@ c #E6904E",
"# c #91DB69",
"$ c #CDDF6C",
"% c #0B8A8F",
/* pixels */
"                        %%                        ",
"                      %%$$%%                      ",
"                  %%%%+$$#$+%%%%                  ",
"                %%+++#$$#+#$#+++%%                ",
"               %++$$+#$$###$####++%               ",
"              %+#$###$#$#++#$##+##+%              ",
"              %++###$#$$#+++#$$###+%              ",
"             %+#$+#$#$$###+#++##++#+%             ",
"             %+$####$$+###+########+%             ",
"            %+++##$$$+#####++#####+%%             ",
"           %+++#$##++##$+$#++++##$#++%%           ",
"          %%%#$$$$#####$+###+##+$$$##++%          ",
"         %%%#$$$$#####$+###$#+###$#+#+%#%         ",
"        %++%#$#$$#+#$####+#$######$$+%%#+%        ",
"        %+#+%+#$#+#$$$#+#+####$#+##+%%###X        ",
"        %#+$+###++$$#$$#+##$###$++##+%#+%X        ",
"        %+$#+++++$$##$$#+##$$+##$+++++$#+X        ",
"       X+%#+++$#+##+#$#+++##$$+##+###+#$++X       ",
"       X%++#+$##+#++##++#++###++#++##++##%X       ",
"        X%#++##+++++#+++#$++##++++++++++%%X       ",
"       X%%%%++++%+#++++#$$#++++$#+$#++#%%X        ",
"      X%%+%++#+#%#$+#%+#$##++%#$#+#$$+%##+X       ",
"      X%+%++##+#+$###%##$###+%##$#+##$+%++%X      ",
"      X%+%+##+#+%$###%###+##%+###$%%+#++%+%X      ",
"      X%%%++%#+%+###%+##+++#%%++#+%%++++%%%X      ",
"      X%X%%%++%%++#%%++#+#+++%+#+++%%%+%%X%X      ",
"       XX%%%%%%+#+++%+%+###++%+##++%+%%%%XX       ",
"       X%%#+%++%+#++%%++###+%%++#++%+#+#%%X       ",
"       X%#++%+%%+++%+%+++#++%%%+++%%%+++#%X       ",
"       X%++%%%%+%+%+#+%%++%%%++%%%%%+%%%+%X       ",
"        X+%%%%#+%+%##+++%%%+%+#+%%+%%X%%%X        ",
"        X%%X%#++%%+#+++#+%+#%++#+%+#%%XXXX        ",
"        X%X%+++%%%#++%++#+#+%++++%%+#%%XX         ",
"         X%%%%%%+%++%%++###+%%+%%+%%+%XX%         ",
"         X%%+%%++%++%%%%+#+%%+%%%++%%%%X%         ",
"        %%X+%%X++%+%%X%%+++%%+++%%+%%XX%%%        ",
"       %%%%XXXX+%%%%%X%%%+%%X%++%%%XXX%%%%%       ",
"      %%%%%%%%%X%%%%XXX%%%%%XX%%%%X%%%%%%%%%      ",
"      %%%%%%%%%oXXXXooOXXXXXooXXXX.%%%%%%%%%      ",
"      %%%%%%%%%oOOoooO@OoOOo@o.ooOO%%%%%%%%%      ",
"      %%%%%%%%%o..o.o@@Oo@OO@@.o.oo%%%%%%%%%      ",
"       %%%%%%%%%XX.o@@OoO@@oO@@.XX%%%%%%%%%       ",
"        %%%%%%%%%X.OOOo.O@O.oOO.X%%%%%%%%%        ",
"         %%%%%%%%%oooo..oOo..oOo%%%%%%%%%         ",
"          %%%%%%%%%X..XX.o.XX.oo%%%%%%%%          ",
"            %%%%%%%%%%%%%%%%%%%%%%%%%%            ",
"               %%%%%%%%%%%%%%%%%%%%               ",
"                   %%%%%%%%%%%%                   ",
"                                                  ",
"                                                  "
};
