/* XPM */
static char *_7b734fffb3f485aa2a3c57c7f4dc8879avviqsFbL4dKOvb[] = {
/* columns rows colors chars-per-pixel */
"50 50 39 1 ",
"  c black",
". c #077175",
"X c #546363",
"o c #606F6F",
"O c red",
"+ c #148D55",
"@ c #179B5E",
"# c #088373",
"$ c #1AAB68",
"% c #1EBC73",
"& c #77B556",
"* c #E2B026",
"= c #F9C22B",
"- c #B79F40",
"; c #83C75F",
": c #91DB69",
"> c #BACB62",
", c #CDDF6C",
"< c #E7CC60",
"1 c #E4E879",
"2 c #097D82",
"3 c #0B8A8F",
"4 c #0C9F8C",
"5 c #0EAF9B",
"6 c #7F8E8E",
"7 c #97A6A6",
"8 c #ABBABA",
"9 c #FBFF86",
"0 c #B1C0C0",
"q c #C6D5D5",
"w c #CBDADA",
"e c #CCDBDB",
"r c #CEDDDD",
"t c #DFEEEE",
"y c #E0EFEF",
"u c #E3F2F2",
"i c #E6F5F5",
"p c #EBFAFA",
"a c azure",
/* pixels */
"%%%%%%%%    %%%%%%%%%%%%%%%%%%%%%%%%%%%%%%%%55%%%%",
"%%%%%%%%    %%%%%%%%%%%%%%%%%%%%%%%%%%%%%%%%55%%%%",
"%%%%    OOOO        %%%%%%,,,,%%%%%%%%,,,,%%%%%%%%",
"%%%%    OOOO        %%%%%%,,,,%%%%%%%%,,,,%%%%%%%%",
"%%%%    OOOO        %%%%,,,,,,::%%%%,,,,,,,,%%%%%%",
"%%%%    OOOO        %%%%,,,,,,::%%%%,,,,,,,,%%%%%%",
"    OOOOaaaaqqqqqqqq    %%,,::::::%%::::    %%%%%%",
"    OOOOaaaaqqqqqqqq    %%,,::::::%%::::    %%%%%%",
"    OOOOaaaaqqqqqqqq    553333::::%%::::    55%%%%",
"    OOOOaaaaqqqqqqqq    553333::::%%::::    55%%%%",
"    OOOOaaaa    aaaaqqqq    3333::33    qqqq    %%",
"    OOOOaaaa    aaaaqqqq    3333::33    qqqq    %%",
"    OOOOaaaa    aaaaqqqq    %%553333    qqqq    %%",
"    OOOOaaaa    aaaaqqqq    %%553333    qqqq    %%",
"----iiiiiiiiiiiiiiiiaaaaqqqq        qqqqppppqqqq  ",
"----iiiiiiiiiiiiiiiiaaaaqqqq        qqqqppppqqqq  ",
"----iiiiiiiiiiiiiiiiaaaaqqqq        qqqqppppqqqq  ",
"----iiiiiiiiiiiiiiiiaaaaqqqq        qqqqppppqqqq  ",
"    OOOOOOOOiiiiiiiiuuuurerewwwwrereiiiippppqqqq  ",
"    OOOOOOOOiiiiiiiiuuuuererwwwwereriiiippppqqqq  ",
"    OOOOOOOOiiiiiiiiuuuurerewwwwrereiiiippppqqqq  ",
"    OOOOOOOOiiiiiiiiuuuuererwwwwereriiiippppqqqq  ",
"    OOOOttttttttyyyyrrrraaaaaaaaaaaaqqqqqqqq7777  ",
"    OOOOttttttttyyyyrrrraaaaaaaaaaaaqqqqqqqq7777  ",
"    OOOOttttttttyyyyrrrraaaaaaaaaaaaqqqqqqqq7777  ",
"    OOOOttttttttyyyyrrrraaaaaaaaaaaaqqqqqqqq7777  ",
"%%%%    77778888yyyyrrrraaaaaaaaaaaaaaaa0000    %%",
"%%%%    77778888yyyyrrrraaaaaaaaaaaaaaaa0000    %%",
"%%%%    77778888yyyyrrrraaaaaaaaaaaaaaaa0000    %%",
"%%%%    77778888yyyyrrrraaaaaaaaaaaaaaaa0000    %%",
"%%%%%%%%    oooo88887777eeeeaaaaaaaaqqqq7777    %%",
"%%%%%%%%    oooo88887777eeeeaaaaaaaaqqqq7777    %%",
"%%%%%%%%    oooo88887777eeeeaaaaaaaaqqqq7777    %%",
"%%%%%%%%    oooo88887777eeeeaaaaaaaaqqqq7777    %%",
"%%%%%%%%::%%    XXXX66667777qqqqqqqq7777    %%%%%%",
"%%%%%%%%::%%    XXXX66667777qqqqqqqq7777    %%%%%%",
"%%%%%%%%%%55    XXXX66667777qqqqqqqq7777    %%%%%%",
"%%%%%%%%%%55    XXXX66667777qqqqqqqq7777    %%%%%%",
"%%%%%%%%%%%%%%%%    XXXXXXXX6666XXXX    %%%%%%%%%%",
"%%%%%%%%%%%%%%%%    XXXXXXXX6666XXXX    %%%%%%%%%%",
"%%%%%%%%%%%%%%%%    XXXXXXXX6666XXXX    99%%%%%%%%",
"%%%%%%%%%%%%%%%%    XXXXXXXX6666XXXX    99%%%%%%%%",
"%%%%%%%%$$$$@@@@    ----    ----    11**==99%%%%%%",
"%%%%%%%%$$$$@@@@    ----    ----    11**==99%%%%%%",
"%%%%%%%%$$$$@@@@    ----    ----    >>1199::,,%%%%",
"%%%%%%%%$$$$@@@@    ----    ----    >>1199::,,%%%%",
"%%%%$$$$@@@@    <<<<    <<<<    ++++&&@@;;;;%%%%%%",
"%%%%$$$$@@@@    <<<<    <<<<    ++++&&@@;;;;%%%%%%",
"%%%%$$$$@@@@    <<<<    <<<<    ++##..&&2244%%%%%%",
"%%%%$$$$@@@@    <<<<    <<<<    ++##..&&2244%%%%%%"
};
