/* XPM */
static char *d5678d8d6a164289ac463137654afa0fkplO1iL0QMvWtH5o[] = {
/* columns rows colors chars-per-pixel */
"50 50 14 1 ",
"  c #2F2F2E",
". c #3B3B39",
"X c #4F4F4E",
"o c #9D5021",
"O c #D67941",
"+ c #1EBC73",
"@ c #F9C22B",
"# c #91DB69",
"$ c #CDDF6C",
"% c #0B8A8F",
"& c #0EAF9B",
"* c gray72",
"= c #FBFF86",
"- c white",
/* pixels */
"++++++++++++++++++++++++++++++++++++++++++++&&++++",
"++++++++++++++++++++++++++++++++++++++++++++&&++++",
"++++++++++++++++++++++++++$$$$++++++++$$$$++++++++",
"++++++++++++++++++++++++++$$$$++++++++$$$$++++++++",
"++++++++++++++++++++++++$$$$$$##++++$$$$$$$$++++++",
"++++++++++++++++++++++++$$$$$$##++++$$$$$$$$++++++",
"++++++++++++++++++++++++++$$######++####$$++++++++",
"++++++++++++++++++++++++++$$######++####$$++++++++",
"++++++++++++++++++++++++&&%%%%####++####%%%%&&++++",
"++++++++++++++++++++++++&&%%%%####++####%%%%&&++++",
"++++++++++++++++++++++++++&&    ##%%##%%%%&&++++++",
"++++++++++++++++++++++++++&&    ##%%##%%%%&&++++++",
"++++++++++++++++++++++++++  oo  %%%%      ++++++++",
"++++++++++++++++++++++++++  oo  %%%%      ++++++++",
"++++++++++++++++++++++++  oo--  ##  ooOO  ++++++++",
"++++++++++++++++++++++++  oo--  ##  ooOO  ++++++++",
"++++    ++++++++++++++##  oo--          ++++++++++",
"++++    ++++++++++++++##  oo--          ++++++++++",
"++++  **      ++++++&&++  ooooOOOOOOOO  ++++++++++",
"++++  **      ++++++&&++  ooooOOOOOOOO  ++++++++++",
"++++  **----OO  ++++++++  ooooOO  oooooo  ++++++++",
"++++  **----OO  ++++++++  ooooOO  oooooo  ++++++++",
"++++++  **ooOOOO  ++++  ooooooOOOOOOOO      ++++++",
"++++++  **ooOOOO  ++++  ooooooOOOOOOOO      ++++++",
"++++++++  ooOOOOOO  ++  ****--------------  ++++++",
"++++++++  ooOOOOOO  ++  ****--------------  ++++++",
"++++++++  ooooOOOO          ****------    ++++++++",
"++++++++  ooooOOOO          ****------    ++++++++",
"++++++++++  oooo  oooooooooo          ++++++++++++",
"++++++++++  oooo  oooooooooo          ++++++++++++",
"++++++++++++    ooooooooOOOOOOOO----  ++++++++++++",
"++++++++++++    ooooooooOOOOOOOO----  ++++++++++++",
"++++++++++++++  ooooooOOOOOOoo****    ++++++++++++",
"++++++++++++++  ooooooOOOOOOoo****    ++++++++++++",
"++++++++##++++  oo        OO      oo  ##++++++++++",
"++++++++##++++  oo        OO      oo  ##++++++++++",
"++++++++++&&++  ..  ..    XX  $$  XX  &&++++++++++",
"++++++++++&&++  ..  ..    XX  $$  XX  &&++++++++++",
"++++++++++++++    ++  ++##    ##++    ++++++++++++",
"++++++++++++++    ++  ++##    ##++    ++++++++++++",
"++++++++++++++++++++++++&&%%##%%&&++++====++++++++",
"++++++++++++++++++++++++&&%%##%%&&++++====++++++++",
"++++++++++++++++++++++++++&&&&&&++++==@@@@==++++++",
"++++++++++++++++++++++++++&&&&&&++++==@@@@==++++++",
"++++++++++++++++++++++++++++++++++##$$====##$$++++",
"++++++++++++++++++++++++++++++++++##$$====##$$++++",
"++++++++++++++++++++++++++++++++++++##++####++++++",
"++++++++++++++++++++++++++++++++++++##++####++++++",
"++++++++++++##++++++++++++++++++++&&%%##%%&&++++++",
"++++++++++++##++++++++++++++++++++&&%%##%%&&++++++"
};
