/* XPM */
static char *c0c259ed72064556840b58143dbdf610QTCQQtHuY7RYss9T[] = {
/* columns rows colors chars-per-pixel */
"50 50 15 1 ",
"  c #2E222F",
". c #2F2F2E",
"X c #3B3B39",
"o c #3E3546",
"O c #165A4C",
"+ c #4F4F4E",
"@ c #9D5021",
"# c #D67941",
"$ c #1EBC73",
"% c #91DB69",
"& c #D5E04B",
"* c #0B8A8F",
"= c #0EAF9B",
"- c gray72",
"; c white",
/* pixels */
"$$$$$$$$$$$$$$$$$$$$$$$$$$$$$$$$$$$$$$$$$$$$$$$$$$",
"$$$$$$$$$$$$$$$$$$$$$$$$$$$$$$$$$$$$$$$$$$$$$$$$$$",
"$$$$$$$$$$$$$$$$$$$$$$$$$$$$$$$$$$$$$$$$$$$$$$$$$$",
"$$$$$$$$$$$$$$$$$$$$$$$$$$$$$$$$$$$$$$$$$$$$$$$$$$",
"$$$$$$$$$$$$$$$$$$$$$$$$$$$$$$$$$$$$$$$$$$$$$$$$$$",
"$$$$$$$$$$$$$$$$$$$$$$$$$$$$$$$$$$$$$$$$$$$$$$$$$$",
"$$$$$$$$$$$$$$$$$$$$$$$$$$$$$$$$$$$$$$$$$$$$$$$$$$",
"$$$$$$$$$$$$$$$$$$$$$$$$$$$$$$$$$$$$$$$$$$$$$$$$$$",
"$$$$$$$$$$$$$$$$$$$$$$$$$$$$$$$$$$$$$$$$$$$$$$$$$$",
"$$$$$$$$$$$$$$$$$$$$$$$$$$$$$$$$$$$$$$$$$$$$$$$$$$",
"$$$$$$$$$$$$$$$$$$$$$$$$$$$$....$$$$$$$$$$$$$$$$$$",
"$$$$$$$$$$$$$$$$$$$$$$$$$$$$....$$$$$$$$$$$$$$$$$$",
"$$$$$$$$$$$$%%&&==$$$$&&&&..@@..==&&......$$$$$$$$",
"$$$$$$$$$$$$%%&&==$$$$&&&&..@@..==&&......$$$$$$$$",
"$$$$$$$$$$==$$%%&&$$&&%%..@@;;..**..@@##..$$$$$$$$",
"$$$$$$$$$$==$$%%&&$$&&%%..@@;;..**..@@##..$$$$$$$$",
"$$$$....$$==**$$%%==%%$$..@@;;..........$$$$$$$$$$",
"$$$$....$$==**$$%%==%%$$..@@;;..........$$$$$$$$$$",
"$$$$..--......OO$$OOOOOO..@@@@########..**$$$$$$$$",
"$$$$..--......OO$$OOOOOO..@@@@########..**$$$$$$$$",
"$$$$..--;;;;##..OOoooooo..@@@@##..@@@@@@..$$$$$$$$",
"$$$$..--;;;;##..OOoooooo..@@@@##..@@@@@@..$$$$$$$$",
"$$$$$$..--@@####..oooo..@@@@@@########......$$$$$$",
"$$$$$$..--@@####..oooo..@@@@@@########......$$$$$$",
"$$$$$$$$..@@######..oo..----;;;;;;;;;;;;;;..$$$$$$",
"$$$$$$$$..@@######..oo..----;;;;;;;;;;;;;;..$$$$$$",
"$$$$$$$$..@@@@####..........----;;;;;;....$$$$$$$$",
"$$$$$$$$..@@@@####..........----;;;;;;....$$$$$$$$",
"$$$$$$$$$$..@@@@..@@@@@@@@@@..........%%$$$$$$$$$$",
"$$$$$$$$$$..@@@@..@@@@@@@@@@..........%%$$$$$$$$$$",
"$$$$$$$$$$$$....@@@@@@@@########;;;;..==**$$$$$$$$",
"$$$$$$$$$$$$....@@@@@@@@########;;;;..==**$$$$$$$$",
"$$$$$$$$$$&&&&..@@@@@@######@@----....&&&&$$$$$$$$",
"$$$$$$$$$$&&&&..@@@@@@######@@----....&&&&$$$$$$$$",
"$$$$$$$$$$$$%%..@@........##......@@..%%$$$$$$$$$$",
"$$$$$$$$$$$$%%..@@........##......@@..%%$$$$$$$$$$",
"$$$$$$$$$$==**..XX..XX....++..  ..++..$$**$$$$$$$$",
"$$$$$$$$$$==**..XX..XX....++..  ..++..$$**$$$$$$$$",
"$$$$$$$$$$$$%%....  ..&&  ....    ....%%==$$$$$$$$",
"$$$$$$$$$$$$%%....  ..&&  ....    ....%%==$$$$$$$$",
"$$$$$$$$$$==$$%%&&OO&&%%**&&%%  %%&&%%==$$$$$$$$$$",
"$$$$$$$$$$==$$%%&&OO&&%%**&&%%  %%&&%%==$$$$$$$$$$",
"$$$$$$$$$$$$==$$%%**%%$$==%%$$**$$%%**$$$$$$$$$$$$",
"$$$$$$$$$$$$==$$%%**%%$$==%%$$**$$%%**$$$$$$$$$$$$",
"$$$$$$$$$$$$$$$$$$$$$$$$$$$$$$$$$$$$$$$$$$$$$$$$$$",
"$$$$$$$$$$$$$$$$$$$$$$$$$$$$$$$$$$$$$$$$$$$$$$$$$$",
"$$$$$$$$$$$$$$$$$$$$$$$$$$$$$$$$$$$$$$$$$$$$$$$$$$",
"$$$$$$$$$$$$$$$$$$$$$$$$$$$$$$$$$$$$$$$$$$$$$$$$$$",
"$$$$$$$$$$$$$$$$$$$$$$$$$$$$$$$$$$$$$$$$$$$$$$$$$$",
"$$$$$$$$$$$$$$$$$$$$$$$$$$$$$$$$$$$$$$$$$$$$$$$$$$"
};
